<?xml version="1.0" encoding="utf-8"?>
<!-- Generator: Adobe Illustrator 26.3.1, SVG Export Plug-In . SVG Version: 6.00 Build 0)  -->
<svg version="1.1" id="Calque_1" xmlns="http://www.w3.org/2000/svg" xmlns:xlink="http://www.w3.org/1999/xlink" x="0px" y="0px"
	 viewBox="0 0 32 28" style="enable-background:new 0 0 32 28;" xml:space="preserve">
<style type="text/css">
	.st0{fill:#642B13;}
</style>
<path class="st0" d="M29.5,2.8c-2.1-2.2-4.8-3.1-7.9-2.7C19.7,0.4,18,1.3,16.5,3c-0.1,0.2-0.3,0.3-0.4,0.5L16,3.7l-0.1-0.1
	c-0.1-0.2-0.3-0.4-0.4-0.5C13,0.3,9.9-0.5,6.4,0.5c-3.1,0.8-5.1,3-6.1,6.4C0.2,7.3,0.2,7.7,0.1,8.1C0.1,8.2,0,8.4,0,8.6v1.8v0.2
	c0,0.1,0,0.3,0.1,0.4c0.2,1.7,0.9,3.3,2.1,4.9s2.6,3.1,4.7,4.9c2,1.7,4,3.4,5.9,5.1l1.9,1.6C15,27.8,15.5,28,16,28s1-0.2,1.4-0.6
	l1.9-1.6c1.9-1.6,3.9-3.3,5.8-5c1.8-1.6,3.2-3,4.3-4.5c1.8-2.4,2.6-4.7,2.5-7.2C31.9,6.6,31,4.5,29.5,2.8L29.5,2.8z"/>
</svg>
