<?xml version="1.0" encoding="utf-8"?>
<!-- Generator: Adobe Illustrator 26.3.1, SVG Export Plug-In . SVG Version: 6.00 Build 0)  -->
<svg version="1.1" id="Calque_1" xmlns="http://www.w3.org/2000/svg" xmlns:xlink="http://www.w3.org/1999/xlink" x="0px" y="0px"
	 viewBox="0 0 32 28" style="enable-background:new 0 0 32 28;" xml:space="preserve">
<style type="text/css">
	.st0{fill:#642B13;}
</style>
<path class="st0" d="M29.5,2.8c-2.1-2.2-4.8-3.1-7.9-2.7c-1.9,0.3-3.6,1.2-5.1,2.9c-0.1,0.2-0.3,0.3-0.4,0.5L16,3.7l-0.1-0.1
	c-0.1-0.2-0.3-0.4-0.4-0.5c-2.5-2.8-5.6-3.6-9.1-2.6C3.3,1.3,1.3,3.5,0.3,6.9C0.2,7.3,0.2,7.7,0.1,8.1C0.1,8.2,0,8.4,0,8.6v1.8
	l0,0.2c0,0.1,0,0.3,0.1,0.4c0.2,1.7,0.9,3.3,2.1,4.9s2.6,3.1,4.7,4.9c2,1.7,4,3.4,5.9,5.1l1.9,1.6C15,27.8,15.5,28,16,28
	c0.5,0,1-0.2,1.4-0.6l1.9-1.6c1.9-1.6,3.9-3.3,5.8-5c1.8-1.6,3.2-3,4.3-4.5c1.8-2.4,2.6-4.7,2.5-7.2C31.9,6.6,31,4.5,29.5,2.8
	L29.5,2.8z M29.8,10.2c-0.1,1.8-0.9,3.5-2.4,5.4c-1.5,1.8-3.2,3.4-4.9,4.8c-1.5,1.3-3,2.5-4.5,3.8L16,25.8c0,0,0,0,0,0l-1.8-1.5
	c-1.5-1.2-2.9-2.5-4.4-3.7c-1.5-1.3-3.2-2.7-4.6-4.3c-1.1-1.2-2.2-2.7-2.7-4.5C1.7,8.9,2.3,6.3,4.2,4.2c1.2-1.3,3-2.1,4.7-2.1
	c0,0,0.1,0,0.1,0c1.8,0,3.5,0.9,4.8,2.3c0.4,0.4,0.7,0.9,1,1.3c0.3,0.4,0.7,0.7,1.2,0.7h0c0.5,0,0.9-0.3,1.2-0.7
	c0.7-1.2,1.6-2,2.5-2.6c2.7-1.7,6.4-1.1,8.5,1.5C29.4,6.2,29.9,8,29.8,10.2z"/>
</svg>
